<?xml version="1.0" encoding="UTF-8" standalone="no"?>
<svg width="1440px" height="450px" viewBox="0 0 1440 450" version="1.1" xmlns="http://www.w3.org/2000/svg" xmlns:xlink="http://www.w3.org/1999/xlink">
    <!-- Generator: Sketch 3.8.3 (29802) - http://www.bohemiancoding.com/sketch -->
    <title>1-Logo-Full-Color</title>
    <desc>Created with Sketch.</desc>
    <defs></defs>
    <g id="Page-1" stroke="none" stroke-width="1" fill="none" fill-rule="evenodd">
        <g id="1-Logo-Full-Color">
            <g id="1-Full-Color" transform="translate(100.000000, 107.000000)">
                <polygon id="Fill-1" fill="#B51F7D" points="1187.07267 60.4700121 1138.30852 114.120679 1193.89496 176.187271 1240 176.187271 1184.06222 114.148234 1232.72533 60.4700121"></polygon>
                <polygon id="Fill-2" fill="#003959" points="1100.965 0.832212051 1100.965 155.820731 1138.32804 114.115397 1138.32804 0.832212051"></polygon>
                <path d="M92.6321333,97.0518491 C83.5479852,89.5245898 74.2020593,88.2248861 68.2431704,88.2248861 C56.5688,88.2248861 49.5559111,93.9380713 46.9588,96.5351824 C42.0447259,101.460738 38.3982074,108.990294 38.3982074,118.320145 C38.3982074,126.883034 41.5165778,134.150812 46.1895407,139.08096 C51.8935407,145.308516 60.4564296,148.419997 68.7552444,148.419997 C75.2422815,148.419997 84.0692444,146.605923 92.6321333,139.347331 L92.6321333,173.070738 C82.7649481,178.519849 73.4282074,180.079034 63.0512444,180.079034 C43.5855407,180.079034 28.8042815,173.070738 18.167837,162.693775 C9.35005926,154.12859 -0.000459259259,139.602219 -0.000459259259,118.581923 C-0.000459259259,98.8705158 8.31213333,83.3085158 19.205763,72.9246639 C32.1821333,60.7313306 47.4869481,56.5773306 63.3084296,56.5773306 C73.4282074,56.5773306 82.7649481,58.3982935 92.6321333,63.0689602 L92.6321333,97.0518491 Z" id="Fill-3" fill="#003959"></path>
                <path d="M107.40237,60.4702417 L144.77,60.4702417 L144.77,78.6316491 C148.131778,72.1446121 153.326,66.1742417 159.284889,62.5483898 C165.517037,58.6561676 172.00637,57.6113528 179.271852,57.6113528 C183.944815,57.6113528 187.308889,58.1349083 191.462889,59.4346121 L189.387037,94.4600195 C184.454593,91.8675009 179.005481,90.3083158 172.516148,90.3083158 C164.481407,90.3083158 158.513333,93.1626121 153.842667,98.0858713 C145.536963,106.908242 144.77,119.365649 144.77,129.221353 L144.77,176.187501 L107.40237,176.187501 L107.40237,60.4702417 Z" id="Fill-6" fill="#003959"></path>
                <path d="M280.929578,140.122101 C275.482763,145.562027 268.481356,148.418619 260.171059,148.418619 C250.313059,148.418619 243.568837,144.795064 238.900467,140.122101 C234.486985,135.715508 230.339874,128.964397 230.339874,118.330249 C230.339874,108.986619 233.451356,101.980619 238.900467,96.5292121 C244.344985,91.0892861 251.357874,88.2349898 259.920763,88.2349898 C268.481356,88.2349898 275.482763,91.0892861 280.929578,96.5292121 C286.376393,101.980619 289.49017,108.986619 289.49017,118.330249 C289.49017,127.662397 286.376393,134.670694 280.929578,140.122101 M310.510467,75.2609158 C300.126615,64.8816565 282.48417,56.5713602 259.920763,56.5713602 C237.341281,56.5713602 219.701133,64.8816565 209.317281,75.2609158 C197.647504,86.9375824 191.936615,103.537508 191.936615,118.330249 C191.936615,133.125286 197.647504,149.720619 209.317281,161.401879 C219.701133,171.769656 237.341281,180.073064 259.920763,180.073064 C282.48417,180.073064 300.126615,171.769656 310.510467,161.401879 C322.184837,149.720619 327.886541,133.125286 327.886541,118.330249 C327.886541,103.537508 322.184837,86.9375824 310.510467,75.2609158" id="Fill-8" fill="#003959"></path>
                <polygon id="Fill-10" fill="#003959" points="398.853578 176.174182 375.504837 176.174182 317.906837 60.4661083 358.895726 60.4661083 388.736096 121.956331 418.057504 58.9138121 437.768911 58.9138121 467.085726 121.956331 496.919207 60.4661083 537.919578 60.4661083 480.321578 176.174182 456.972837 176.174182 427.9178 110.279664"></polygon>
                <path d="M545.369222,60.4702417 L582.732259,60.4702417 L582.732259,74.2250565 C594.137963,59.6917972 607.633296,57.3518713 618.533815,57.3518713 C628.651296,57.3518713 641.880259,59.170538 651.745148,69.028538 C662.638778,79.9313528 663.41263,93.6792787 663.41263,103.022908 L663.41263,176.187501 L626.054185,176.187501 L626.054185,116.768538 C626.054185,109.245871 625.799296,99.6519454 619.82663,93.6792787 C616.976926,90.8203898 612.306259,88.4896491 605.56663,88.4896491 C597.775296,88.4896491 592.845148,91.6034269 590.000037,94.7195009 C583.767889,100.947056 582.732259,109.245871 582.732259,116.768538 L582.732259,176.187501 L545.369222,176.187501 L545.369222,60.4702417 Z" id="Fill-12" fill="#003959"></path>
                <path d="M762.856956,139.85619 C757.407844,145.055005 749.882881,147.897819 742.881474,147.897819 C734.835252,147.897819 727.0554,144.526856 721.608585,139.086931 C716.157178,133.36456 713.298289,125.855671 713.298289,118.583301 C713.298289,111.58419 716.157178,103.273894 722.122956,97.3058195 C725.751104,93.6822639 732.504511,88.7475232 742.881474,88.7475232 C750.408733,88.7475232 757.667326,91.5995232 763.116437,96.7937454 C768.30377,101.721597 771.936511,109.244264 771.936511,117.804856 C771.936511,125.334412 768.829622,134.149894 762.856956,139.85619 M792.947622,72.9237454 C785.693622,65.6605602 772.710363,56.5764121 751.958733,56.5764121 C743.143252,56.5764121 728.093326,58.3996713 715.8954,74.2188565 L715.8954,60.466338 L678.536956,60.466338 L678.536956,235.593375 L715.8954,235.593375 L715.8954,162.947745 C719.792215,168.396856 729.650215,180.073523 752.737178,180.073523 C768.048881,180.073523 780.503993,175.919523 791.916585,164.504634 C803.324585,153.089745 810.330585,138.039819 810.330585,118.066634 C810.330585,99.1267824 803.324585,83.3030046 792.947622,72.9237454" id="Fill-14" fill="#003959"></path>
                <path d="M1039.43276,139.869738 C1034.50031,144.795294 1027.49661,147.899886 1019.97394,147.899886 C1011.15846,147.899886 1003.10994,144.276331 997.918015,138.824923 C994.544756,135.18759 990.138163,128.450256 990.138163,118.066405 C990.138163,107.687145 994.80883,100.947516 998.703348,97.0529972 C1003.6335,92.1205528 1011.15846,88.7541824 1019.1955,88.7541824 C1025.94201,88.7541824 1034.25231,91.3421083 1039.95172,96.7889232 C1045.40542,101.978553 1048.51461,109.760701 1048.51461,118.066405 C1048.51461,127.924405 1044.3652,135.18759 1039.43276,139.869738 L1039.43276,139.869738 Z M1046.17698,60.4707009 L1046.17698,73.4424787 C1035.54513,58.9069232 1019.71446,56.5761824 1009.85416,56.5761824 C993.764015,56.5761824 979.756607,62.2824787 969.643719,72.4022565 C959.011867,83.0478861 951.7372,99.6524046 951.7372,119.102034 C951.7372,134.413738 956.412459,149.463664 968.610385,162.430849 C981.318089,175.919294 995.3232,180.077886 1011.93001,180.077886 C1021.52624,180.077886 1036.0595,177.73796 1046.17698,162.164479 L1046.17698,176.18796 L1083.54461,176.18796 L1083.54461,60.4707009 L1046.17698,60.4707009 Z" id="Fill-17" fill="#003959"></path>
                <path d="M863.927748,90.0430935 C867.562785,86.4103528 873.266785,82.5273158 882.869896,82.5273158 C890.390267,82.5273158 896.358341,85.1152417 900.510044,89.0028713 C905.961452,94.1993898 907.777822,101.469464 908.035007,102.498205 L857.443007,102.498205 C858.476341,97.3062787 861.078044,93.1568713 863.927748,90.0430935 M897.396267,148.426427 C893.506341,150.757168 887.797748,151.790501 882.346341,151.790501 C876.64923,151.790501 868.857896,150.757168 863.1516,144.527316 C858.476341,139.346871 856.141007,131.034279 856.141007,124.815908 L942.541452,124.815908 L942.541452,120.916797 C942.541452,106.645316 939.944341,88.4930935 926.189526,73.9667232 C911.929526,58.9145009 893.244563,56.5699824 880.277378,56.5699824 C867.301007,56.5699824 849.918044,59.178575 835.903748,73.1859824 C824.224785,85.1152417 818.268193,102.238723 818.268193,118.843242 C818.268193,138.040279 825.533674,153.354279 835.648859,163.474056 C849.1396,176.964797 864.451304,180.073982 881.83197,180.073982 C894.803748,180.073982 907.247378,178.255316 918.41197,171.506501 C924.2836,167.903612 932.897007,160.941242 938.460933,148.435612 L905.431007,138.841686 C902.326415,145.314945 897.912933,148.15776 897.396267,148.426427" id="Fill-19" fill="#003959"></path>
            </g>
        </g>
    </g>
</svg>